<?xml version="1.0" encoding="UTF-8"?>
<svg xmlns="http://www.w3.org/2000/svg" xmlns:xlink="http://www.w3.org/1999/xlink" width="128pt" height="128pt" viewBox="0 0 128 128" version="1.1">
<g id="surface1553470">
<path style=" stroke:none;fill-rule:nonzero;fill:rgb(0%,76.470588%,86.666667%);fill-opacity:1;" d="M 92.273438 20.023438 C 91.5625 20.023438 86.503906 21.019531 45.03125 28.789062 C 44.707031 28.789062 43.15625 29.195312 42.304688 29.90625 C 41.46875 30.578125 41.023438 31.476562 40.859375 32.53125 C 40.167969 35.296875 42.371094 85.125 40.320312 87.460938 C 39.425781 88.457031 37.84375 88.746094 36.625 88.96875 C 29.328125 90.25 24.472656 90.917969 21.015625 94.210938 C 15.058594 100.023438 18.144531 110.164062 26.929688 111.8125 C 30.222656 112.421875 36.40625 111.59375 39.820312 109.703125 C 42.828125 108.15625 45.109375 105.371094 45.960938 101.671875 C 46.691406 98.5 46.46875 100.691406 46.46875 52.976562 C 46.46875 50.636719 47.125 50.027344 49.195312 49.578125 C 49.195312 49.578125 85.277344 42.832031 86.945312 42.546875 C 89.28125 42.140625 90.398438 42.769531 90.398438 45.046875 C 90.398438 77.394531 90.808594 76.761719 89.507812 78.226562 C 88.613281 79.222656 87.546875 79.503906 86.328125 79.726562 C 79.027344 81.007812 74.621094 81.230469 71.164062 84.523438 C 66.792969 88.792969 66.851562 95.558594 71.710938 99.648438 C 75.332031 102.410156 79.394531 103.085938 84.375 102.171875 C 90.046875 101.113281 94.277344 97.976562 95.578125 92.40625 C 96.167969 89.867188 95.976562 93.625 95.953125 23.601562 C 95.953125 21.242188 94.609375 19.859375 92.273438 20.023438 Z M 92.273438 20.023438 "/>
</g>
</svg>
